<svg width="131" height="30" viewBox="0 0 131 30" fill="none" xmlns="http://www.w3.org/2000/svg">
<path d="M13.4 4.25V0H0V29.2H13.4V24.95C10.655 24.95 8.0224 23.8595 6.08144 21.9185C4.14044 19.9775 3.05 17.345 3.05 14.6C3.05 11.855 4.14044 9.22241 6.08144 7.28145C8.0224 5.34045 10.655 4.25 13.4 4.25Z" fill="#475569"/>
<path d="M13.3999 4.25V24.95C16.1449 24.95 18.7775 23.8595 20.7185 21.9185C22.6595 19.9775 23.7499 17.345 23.7499 14.6C23.7499 11.855 22.6595 9.22241 20.7185 7.28145C18.7775 5.34045 16.1449 4.25 13.3999 4.25Z" fill="#475569"/>
<path d="M36.4375 4.58826V22.6H33.0625V4.58826H36.4375ZM44.4297 9.92029L38.9219 16.2015L35.9688 19.1898L34.7383 16.7523L37.082 13.7758L40.375 9.92029H44.4297ZM40.9258 22.6L37.1758 16.7406L39.5078 14.7015L44.8164 22.6H40.9258ZM45.3438 16.389V16.1429C45.3438 15.2133 45.4766 14.3578 45.7422 13.5765C46.0078 12.7875 46.3945 12.1039 46.9023 11.5258C47.4102 10.9476 48.0352 10.4984 48.7773 10.1781C49.5195 9.84998 50.3711 9.68591 51.332 9.68591C52.293 9.68591 53.1484 9.84998 53.8984 10.1781C54.6484 10.4984 55.2773 10.9476 55.7852 11.5258C56.3008 12.1039 56.6914 12.7875 56.957 13.5765C57.2227 14.3578 57.3555 15.2133 57.3555 16.1429V16.389C57.3555 17.3109 57.2227 18.1664 56.957 18.9554C56.6914 19.7367 56.3008 20.4203 55.7852 21.0062C55.2773 21.5844 54.6523 22.0336 53.9102 22.3539C53.168 22.6742 52.3164 22.8344 51.3555 22.8344C50.3945 22.8344 49.5391 22.6742 48.7891 22.3539C48.0469 22.0336 47.418 21.5844 46.9023 21.0062C46.3945 20.4203 46.0078 19.7367 45.7422 18.9554C45.4766 18.1664 45.3438 17.3109 45.3438 16.389ZM48.7188 16.1429V16.389C48.7188 16.9203 48.7656 17.4164 48.8594 17.8773C48.9531 18.3383 49.1016 18.7445 49.3047 19.0961C49.5156 19.4398 49.7891 19.7094 50.125 19.9047C50.4609 20.1 50.8711 20.1976 51.3555 20.1976C51.8242 20.1976 52.2266 20.1 52.5625 19.9047C52.8984 19.7094 53.168 19.4398 53.3711 19.0961C53.5742 18.7445 53.7227 18.3383 53.8164 17.8773C53.918 17.4164 53.9688 16.9203 53.9688 16.389V16.1429C53.9688 15.6273 53.918 15.1429 53.8164 14.6898C53.7227 14.2289 53.5703 13.8226 53.3594 13.4711C53.1562 13.1117 52.8867 12.8304 52.5508 12.6273C52.2148 12.4242 51.8086 12.3226 51.332 12.3226C50.8555 12.3226 50.4492 12.4242 50.1133 12.6273C49.7852 12.8304 49.5156 13.1117 49.3047 13.4711C49.1016 13.8226 48.9531 14.2289 48.8594 14.6898C48.7656 15.1429 48.7188 15.6273 48.7188 16.1429ZM62.7344 12.6273V22.6H59.3594V9.92029H62.5234L62.7344 12.6273ZM62.2422 15.8148H61.3281C61.3281 14.8773 61.4492 14.0336 61.6914 13.2836C61.9336 12.5258 62.2734 11.8812 62.7109 11.35C63.1484 10.8109 63.668 10.4008 64.2695 10.1195C64.8789 9.83044 65.5586 9.68591 66.3086 9.68591C66.9023 9.68591 67.4453 9.77185 67.9375 9.94373C68.4297 10.1156 68.8516 10.389 69.2031 10.764C69.5625 11.139 69.8359 11.6351 70.0234 12.2523C70.2188 12.8695 70.3164 13.6234 70.3164 14.514V22.6H66.918V14.5023C66.918 13.9398 66.8398 13.5023 66.6836 13.1898C66.5273 12.8773 66.2969 12.6586 65.9922 12.5336C65.6953 12.4008 65.3281 12.3344 64.8906 12.3344C64.4375 12.3344 64.043 12.4242 63.707 12.6039C63.3789 12.7836 63.1055 13.0336 62.8867 13.3539C62.6758 13.6664 62.5156 14.0336 62.4062 14.4554C62.2969 14.8773 62.2422 15.3304 62.2422 15.8148ZM79.0938 9.92029V12.3109H71.7109V9.92029H79.0938ZM73.5391 6.79138H76.9141V18.7797C76.9141 19.1469 76.9609 19.4281 77.0547 19.6234C77.1562 19.8187 77.3047 19.9554 77.5 20.0336C77.6953 20.1039 77.9414 20.139 78.2383 20.139C78.4492 20.139 78.6367 20.1312 78.8008 20.1156C78.9727 20.0922 79.1172 20.0687 79.2344 20.0453L79.2461 22.5297C78.957 22.6234 78.6445 22.6976 78.3086 22.7523C77.9727 22.807 77.6016 22.8344 77.1953 22.8344C76.4531 22.8344 75.8047 22.7133 75.25 22.4711C74.7031 22.2211 74.2812 21.8226 73.9844 21.2758C73.6875 20.7289 73.5391 20.0101 73.5391 19.1195V6.79138ZM84.3906 12.6859V22.6H81.0156V9.92029H84.1914L84.3906 12.6859ZM88.2109 9.83826L88.1523 12.9672C87.9883 12.9437 87.7891 12.9242 87.5547 12.9086C87.3281 12.8851 87.1211 12.8734 86.9336 12.8734C86.457 12.8734 86.043 12.9359 85.6914 13.0609C85.3477 13.1781 85.0586 13.3539 84.8242 13.5883C84.5977 13.8226 84.4258 14.1078 84.3086 14.4437C84.1992 14.7797 84.1367 15.1625 84.1211 15.5922L83.4414 15.3812C83.4414 14.5609 83.5234 13.807 83.6875 13.1195C83.8516 12.4242 84.0898 11.8187 84.4023 11.3031C84.7227 10.7875 85.1133 10.389 85.5742 10.1078C86.0352 9.82654 86.5625 9.68591 87.1562 9.68591C87.3438 9.68591 87.5352 9.70154 87.7305 9.73279C87.9258 9.75623 88.0859 9.79138 88.2109 9.83826ZM96.25 19.7406V14.0922C96.25 13.6859 96.1836 13.3383 96.0508 13.0492C95.918 12.7523 95.7109 12.5219 95.4297 12.3578C95.1562 12.1937 94.8008 12.1117 94.3633 12.1117C93.9883 12.1117 93.6641 12.1781 93.3906 12.3109C93.1172 12.4359 92.9062 12.6195 92.7578 12.8617C92.6094 13.0961 92.5352 13.3734 92.5352 13.6937H89.1602C89.1602 13.1547 89.2852 12.6429 89.5352 12.1586C89.7852 11.6742 90.1484 11.2484 90.625 10.8812C91.1016 10.5062 91.668 10.2133 92.3242 10.0023C92.9883 9.79138 93.7305 9.68591 94.5508 9.68591C95.5352 9.68591 96.4102 9.84998 97.1758 10.1781C97.9414 10.5062 98.543 10.9984 98.9805 11.6547C99.4258 12.3109 99.6484 13.1312 99.6484 14.1156V19.5414C99.6484 20.2367 99.6914 20.807 99.7773 21.2523C99.8633 21.6898 99.9883 22.0726 100.152 22.4008V22.6H96.7422C96.5781 22.2562 96.4531 21.8265 96.3672 21.3109C96.2891 20.7875 96.25 20.264 96.25 19.7406ZM96.6953 14.8773L96.7188 16.7875H94.832C94.3867 16.7875 94 16.8383 93.6719 16.9398C93.3438 17.0414 93.0742 17.1859 92.8633 17.3734C92.6523 17.5531 92.4961 17.764 92.3945 18.0062C92.3008 18.2484 92.2539 18.514 92.2539 18.8031C92.2539 19.0922 92.3203 19.3539 92.4531 19.5883C92.5859 19.8148 92.7773 19.9945 93.0273 20.1273C93.2773 20.2523 93.5703 20.3148 93.9062 20.3148C94.4141 20.3148 94.8555 20.2133 95.2305 20.0101C95.6055 19.807 95.8945 19.557 96.0977 19.2601C96.3086 18.9633 96.418 18.682 96.4258 18.4164L97.3164 19.8461C97.1914 20.1664 97.0195 20.4984 96.8008 20.8422C96.5898 21.1859 96.3203 21.5101 95.9922 21.8148C95.6641 22.1117 95.2695 22.3578 94.8086 22.5531C94.3477 22.7406 93.8008 22.8344 93.168 22.8344C92.3633 22.8344 91.6328 22.6742 90.9766 22.3539C90.3281 22.0258 89.8125 21.5765 89.4297 21.0062C89.0547 20.4281 88.8672 19.7719 88.8672 19.0375C88.8672 18.3734 88.9922 17.7836 89.2422 17.2679C89.4922 16.7523 89.8594 16.3187 90.3438 15.9672C90.8359 15.6078 91.4492 15.3383 92.1836 15.1586C92.918 14.9711 93.7695 14.8773 94.7383 14.8773H96.6953ZM109.105 19.0961C109.105 18.8539 109.035 18.6351 108.895 18.4398C108.754 18.2445 108.492 18.0648 108.109 17.9008C107.734 17.7289 107.191 17.5726 106.48 17.432C105.84 17.2914 105.242 17.1156 104.688 16.9047C104.141 16.6859 103.664 16.4242 103.258 16.1195C102.859 15.8148 102.547 15.4554 102.32 15.0414C102.094 14.6195 101.98 14.139 101.98 13.6C101.98 13.0687 102.094 12.5687 102.32 12.1C102.555 11.6312 102.887 11.2172 103.316 10.8578C103.754 10.4906 104.285 10.2054 104.91 10.0023C105.543 9.79138 106.254 9.68591 107.043 9.68591C108.145 9.68591 109.09 9.86169 109.879 10.2133C110.676 10.5648 111.285 11.0492 111.707 11.6664C112.137 12.2758 112.352 12.9711 112.352 13.7523H108.977C108.977 13.4242 108.906 13.1312 108.766 12.8734C108.633 12.6078 108.422 12.4008 108.133 12.2523C107.852 12.0961 107.484 12.0179 107.031 12.0179C106.656 12.0179 106.332 12.0844 106.059 12.2172C105.785 12.3422 105.574 12.514 105.426 12.7328C105.285 12.9437 105.215 13.1781 105.215 13.4359C105.215 13.6312 105.254 13.807 105.332 13.9633C105.418 14.1117 105.555 14.2484 105.742 14.3734C105.93 14.4984 106.172 14.6156 106.469 14.725C106.773 14.8265 107.148 14.9203 107.594 15.0062C108.508 15.1937 109.324 15.4398 110.043 15.7445C110.762 16.0414 111.332 16.4476 111.754 16.9633C112.176 17.4711 112.387 18.139 112.387 18.9672C112.387 19.5297 112.262 20.0453 112.012 20.514C111.762 20.9828 111.402 21.3929 110.934 21.7445C110.465 22.0883 109.902 22.3578 109.246 22.5531C108.598 22.7406 107.867 22.8344 107.055 22.8344C105.875 22.8344 104.875 22.6234 104.055 22.2015C103.242 21.7797 102.625 21.2445 102.203 20.5961C101.789 19.9398 101.582 19.2679 101.582 18.5804H104.781C104.797 19.0414 104.914 19.4125 105.133 19.6937C105.359 19.975 105.645 20.1781 105.988 20.3031C106.34 20.4281 106.719 20.4906 107.125 20.4906C107.562 20.4906 107.926 20.432 108.215 20.3148C108.504 20.1898 108.723 20.0258 108.871 19.8226C109.027 19.6117 109.105 19.3695 109.105 19.0961ZM120.789 9.92029V12.3109H113.406V9.92029H120.789ZM115.234 6.79138H118.609V18.7797C118.609 19.1469 118.656 19.4281 118.75 19.6234C118.852 19.8187 119 19.9554 119.195 20.0336C119.391 20.1039 119.637 20.139 119.934 20.139C120.145 20.139 120.332 20.1312 120.496 20.1156C120.668 20.0922 120.812 20.0687 120.93 20.0453L120.941 22.5297C120.652 22.6234 120.34 22.6976 120.004 22.7523C119.668 22.807 119.297 22.8344 118.891 22.8344C118.148 22.8344 117.5 22.7133 116.945 22.4711C116.398 22.2211 115.977 21.8226 115.68 21.2758C115.383 20.7289 115.234 20.0101 115.234 19.1195V6.79138ZM126.086 12.6859V22.6H122.711V9.92029H125.887L126.086 12.6859ZM129.906 9.83826L129.848 12.9672C129.684 12.9437 129.484 12.9242 129.25 12.9086C129.023 12.8851 128.816 12.8734 128.629 12.8734C128.152 12.8734 127.738 12.9359 127.387 13.0609C127.043 13.1781 126.754 13.3539 126.52 13.5883C126.293 13.8226 126.121 14.1078 126.004 14.4437C125.895 14.7797 125.832 15.1625 125.816 15.5922L125.137 15.3812C125.137 14.5609 125.219 13.807 125.383 13.1195C125.547 12.4242 125.785 11.8187 126.098 11.3031C126.418 10.7875 126.809 10.389 127.27 10.1078C127.73 9.82654 128.258 9.68591 128.852 9.68591C129.039 9.68591 129.23 9.70154 129.426 9.73279C129.621 9.75623 129.781 9.79138 129.906 9.83826Z" fill="#475569"/>
</svg>
